<?xml version="1.0" encoding="UTF-8"?>
<svg id="Layer_2" data-name="Layer 2" xmlns="http://www.w3.org/2000/svg" viewBox="0 0 1893.38 1893.78">
  <defs>
    <style>
      .cls-1 {
        fill: #5b2c91;
      }

      .cls-2 {
        fill: #fdfdfd;
      }
    </style>
  </defs>
  <g id="Layer_1-2" data-name="Layer 1">
    <g>
      <path class="cls-1" d="M946.76,1893.78C426.64,1893.97,5.6,1474.61,.06,957.93-5.59,431.34,414.89,11.09,925.23,.22c531.44-11.32,956.32,410.69,967.87,920.49,6.01,265.32-83.8,495.01-267.67,686.26-181.62,188.91-428.22,287.35-678.66,286.81Zm364.41-903.72c80.99,0,161.98,0,242.97,0,15.29,0,24.04-8.45,24.07-23.62,.06-28,.51-56-.09-83.99-1.24-58.15-27.24-102.22-77.31-131.71-22.89-13.48-48.14-19.15-74.6-19.17-98.99-.07-197.97-.04-296.96-.02-12.18,0-24.24,1.19-36.19,3.73-63.04,13.38-112.2,69.64-117.01,133.97-1.28,17.14-.53,34.31-.57,51.47-.08,32.85-1.08,65.75,.39,98.54,3.59,80.05,69.81,142.97,149.93,142.98,98.82,.01,197.64-.02,296.46,.03,9.34,0,18.65-.26,27.87-1.85,55.62-9.63,94.31-40.81,116.85-92.26,5.36-12.24-4.29-23.43-18.91-20.37-17.43,3.65-35.36,3.53-52.83,.07-8.14-1.61-13.98-.3-18.55,5.01-13.8,16.03-31.47,23.36-52.48,23.29-31.5-.09-62.99-.02-94.49-.02-67.32,0-134.65,.05-201.97-.02-29.91-.03-54.85-18.42-63.37-46.47-3.35-11.04-2.33-22.43-2.74-33.72-.17-4.82,1.29-5.99,6.08-5.98,81.15,.16,162.31,.11,243.46,.11Zm-392.94-91.87c0-47.49,0-94.98,0-142.47,0-15.5-8.48-24.09-24.04-24.16-12.83-.06-25.66-.06-38.49,0-14.83,.06-23.58,8.84-23.58,23.6-.02,91.81-.02,183.63-.03,275.44,0,27.63-19.63,46.52-47.76,45.5-25.61-.93-51.23-1.08-76.84,0-27.54,1.16-47.34-17.87-47.34-44.96,0-91.98,0-183.96,0-275.94,0-14.35-8.76-23.43-23.17-23.62-13.49-.17-27-.17-40.49,.05-4.89,.08-9.73,.76-13.89,4.13-6.36,5.15-8.73,11.63-8.72,19.69,.11,91.65,.08,183.29,.07,274.94,0,27.77-19.52,46.58-47.77,45.73-25.56-.77-51.13-1.11-76.67-.03-27.68,1.17-47.56-17.83-47.55-44.88,0-91.98,0-183.96,.01-275.94,0-14.45-8.77-23.53-23.14-23.68-13.33-.14-26.66-.14-39.99,.02-14.75,.18-23.3,9.11-23.3,23.97,0,91.48,0,182.96,.02,274.44,0,4.82,.21,9.66,.61,14.47,5.49,65.91,61.8,117.73,127.91,117.76,28.99,.01,57.99,.16,86.98-.05,30.55-.22,57.82-10.02,81.56-29.26,3.25-2.63,5.12-3.11,8.62-.22,24.31,20.12,52.49,29.54,83.95,29.53,27.66,0,55.32-.02,82.98,.01,9.36,.01,18.6-.99,27.74-2.94,60.11-12.83,102.35-65.12,102.33-126.66-.01-44.82,0-89.65,0-134.47Z"/>
      <path class="cls-2" d="M1311.17,990.06c-81.15,0-162.31,.05-243.46-.11-4.79,0-6.25,1.16-6.08,5.98,.41,11.29-.62,22.68,2.74,33.72,8.52,28.05,33.46,46.44,63.37,46.47,67.32,.07,134.65,.02,201.97,.02,31.5,0,62.99-.07,94.49,.02,21.02,.06,38.68-7.26,52.48-23.29,4.57-5.31,10.41-6.62,18.55-5.01,17.47,3.46,35.4,3.57,52.83-.07,14.62-3.06,24.27,8.13,18.91,20.37-22.53,51.45-61.23,82.62-116.85,92.26-9.22,1.6-18.52,1.86-27.87,1.85-98.82-.05-197.64-.02-296.46-.03-80.13,0-146.34-62.93-149.93-142.98-1.47-32.79-.47-65.69-.39-98.54,.04-17.15-.71-34.32,.57-51.47,4.8-64.33,53.96-120.58,117.01-133.97,11.95-2.54,24.01-3.73,36.19-3.73,98.99-.03,197.97-.06,296.96,.02,26.46,.02,51.71,5.68,74.6,19.17,50.06,29.49,76.06,73.57,77.31,131.71,.6,27.98,.15,55.99,.09,83.99-.03,15.17-8.78,23.62-24.07,23.62-80.99-.01-161.98,0-242.97,0Zm-34.35-86.14c50.15,0,100.29,0,150.44,0,19.99,0,39.98-.11,59.97,.08,4.2,.04,5.08-1.36,4.62-5.97-.37-3.79-.44-7.61-.16-11.41,2.69-36.71-26.94-68.56-63.09-68.6-101.29-.13-202.58-.07-303.88,.02-25.46,.02-49.43,17.22-58.63,41-5.03,13-4.23,26.42-4.56,39.85-.11,4.31,1.38,5.11,5.37,5.1,69.97-.12,139.94-.09,209.92-.08Z"/>
      <path class="cls-2" d="M918.23,898.19c0,44.82-.01,89.65,0,134.47,.02,61.53-42.22,113.83-102.33,126.66-9.14,1.95-18.38,2.95-27.74,2.94-27.66-.03-55.32-.02-82.98-.01-31.45,0-59.63-9.42-83.95-29.53-3.49-2.89-5.37-2.41-8.62,.22-23.74,19.24-51.01,29.04-81.56,29.26-28.99,.2-57.99,.06-86.98,.05-66.11-.03-122.42-51.86-127.91-117.76-.4-4.81-.6-9.64-.61-14.47-.03-91.48-.02-182.96-.02-274.44,0-14.87,8.55-23.79,23.3-23.97,13.33-.16,26.66-.15,39.99-.02,14.37,.15,23.14,9.23,23.14,23.68,0,91.98,0,183.96-.01,275.94,0,27.05,19.87,46.04,47.55,44.88,25.55-1.08,51.12-.74,76.67,.03,28.25,.85,47.77-17.95,47.77-45.73,0-91.65,.04-183.29-.07-274.94,0-8.06,2.36-14.54,8.72-19.69,4.16-3.37,9-4.05,13.89-4.13,13.49-.22,26.99-.22,40.49-.05,14.41,.18,23.17,9.27,23.17,23.62,0,91.98,0,183.96,0,275.94,0,27.09,19.81,46.12,47.34,44.96,25.61-1.08,51.23-.92,76.84,0,28.13,1.02,47.76-17.87,47.76-45.5,0-91.81,.01-183.63,.03-275.44,0-14.76,8.76-23.54,23.58-23.6,12.83-.05,25.66-.05,38.49,0,15.56,.07,24.04,8.66,24.04,24.16-.01,47.49,0,94.98,0,142.47Z"/>
      <path class="cls-1" d="M1276.81,903.92c-69.97,0-139.94-.04-209.92,.08-3.99,0-5.47-.8-5.37-5.1,.34-13.43-.47-26.85,4.56-39.85,9.2-23.78,33.17-40.98,58.63-41,101.29-.08,202.58-.14,303.88-.02,36.15,.05,65.78,31.89,63.09,68.6-.28,3.8-.21,7.61,.16,11.41,.46,4.61-.43,6.01-4.62,5.97-19.99-.19-39.98-.08-59.97-.08-50.15,0-100.29,0-150.44,0Z"/>
    </g>
  </g>
</svg>